<?xml version="1.0" encoding="UTF-8"?>
<svg id="Layer_2" data-name="Layer 2" xmlns="http://www.w3.org/2000/svg" viewBox="0 0 1233.7 138.06">
  <defs>
    <style>
      .cls-1 {
        fill: #aea387;
      }

      .cls-1, .cls-2 {
        stroke-width: 0px;
      }
    </style>
  </defs>
  <g id="Layer_1-2" data-name="Layer 1">
    <path class="cls-2" d="m0,22.06v113.64h30.76V2.54L0,22.06Z"/>
    <path class="cls-2" d="m106.12,137.97c-18.22.11-40.63-5.08-54.24-15.42l10.51-23.18c15.73,11.81,45.85,18.89,63.32,9.99,12.06-7.36,4.89-20.92-6.97-23.3-35.47-8.47-82.15-18.06-57.9-65.38,20.08-27.38,68.61-24.69,96.1-8.68l-9.54,23.41c-46.29-28.91-96.21,9.67-33.29,21.53,71.69,8.34,60.21,82.73-7.99,81.02Z"/>
    <path class="cls-2" d="m227.48,137.97c-18.22.11-40.63-5.08-54.24-15.42l10.51-23.18c15.73,11.81,45.85,18.89,63.32,9.99,12.06-7.36,4.89-20.92-6.97-23.3-35.47-8.47-82.15-18.06-57.9-65.38,20.08-27.38,68.61-24.69,96.1-8.68l-9.54,23.41c-46.29-28.91-96.21,9.67-33.29,21.53,71.69,8.34,60.21,82.73-7.99,81.02Z"/>
    <path class="cls-2" d="m364.25,137.97c-79.05.6-57.45-83.23-60.3-135.44h30.78v73.43c0,23.84,9.89,35.74,29.69,35.74,21.66-.27,29.66-13.69,29.69-35.74,0,0,0-73.43,0-73.43h30.43c-2.84,52.33,18.73,136.01-60.3,135.44Z"/>
    <path class="cls-2" d="m626.36,137.97c-18.22.11-40.63-5.08-54.24-15.42l10.51-23.18c15.73,11.81,45.85,18.89,63.32,9.99,12.06-7.36,4.89-20.92-6.97-23.3-35.47-8.47-82.15-18.06-57.9-65.38,20.08-27.38,68.61-24.69,96.1-8.68l-9.54,23.41c-46.29-28.91-96.21,9.67-33.29,21.53,71.69,8.34,60.21,82.73-7.99,81.02Z"/>
    <path class="cls-2" d="m731.55,27.6h-42.65V2.53h116.08v25.07h-42.65v108.09h-30.78V27.6Z"/>
    <path class="cls-2" d="m1030.95,137.97c-54.5,2.67-90.73-58.16-62.69-104.38,22.83-39.97,88.47-45.17,117.68-9.76l-19.81,18.27c-24.14-30.7-78.46-13.11-76.11,27.01-2.31,40.1,52.07,57.7,76.11,26.83l19.81,18.21c-13.46,16.44-33.28,23.84-54.99,23.81Z"/>
    <polygon class="cls-2" points="1230.51 2.54 1137.27 101.99 1137.27 135.69 1106.65 135.69 1106.65 2.54 1137.27 2.54 1137.27 64.71 1196.24 2.54 1230.51 2.54"/>
    <polygon class="cls-1" points="1233.7 135.69 1197.79 135.69 1170.37 101.99 1207.23 101.99 1233.7 135.69"/>
    <polygon class="cls-2" points="878.51 37.52 835.57 135.7 804 135.7 863.38 2.54 893.8 2.54 953.37 135.7 920.98 135.7 878.51 37.52"/>
    <rect class="cls-2" x="454.96" y="2.48" width="100.63" height="24.76"/>
    <rect class="cls-2" x="454.96" y="55.52" width="90.16" height="24.76"/>
    <rect class="cls-2" x="455.04" y="110.93" width="102.96" height="24.76"/>
    <polygon class="cls-1" points="878.14 135.04 902.24 93.3 854.05 93.3 878.14 135.04"/>
  </g>
</svg>